<svg width="64" height="64" viewBox="0 0 512 512" fill="none" xmlns="http://www.w3.org/2000/svg">
  <rect width="512" height="512" rx="116" fill="#9DBA8C"/>
  <!-- steam -->
  <g stroke="#FFFFFF" stroke-width="16" fill="none" stroke-linecap="round">
    <path d="M300 196 C 282 176, 318 164, 300 142 C 286 124, 314 114, 302 96"/>
    <path d="M340 206 C 326 188, 356 178, 340 158"/>
  </g>
  <!-- lid -->
  <g fill="#FFFFFF" transform="rotate(-7 256 222)">
    <ellipse cx="256" cy="222" rx="122" ry="28"/>
    <rect x="232" y="188" width="48" height="16" rx="8"/>
  </g>
  <!-- pot -->
  <g fill="#FFFFFF">
    <rect x="144" y="250" width="224" height="31" rx="14"/>
    <rect x="116" y="256" width="38" height="21" rx="10"/>
    <rect x="358" y="256" width="38" height="21" rx="10"/>
    <path d="M160 281 L352 281 L341 362 Q336 388 309 388 L203 388 Q176 388 171 362 Z"/>
  </g>
</svg>
