<?xml version="1.0" encoding="UTF-8"?>
<svg version="1.1" xmlns="http://www.w3.org/2000/svg" width="1254" height="1254">
<path d="M0 0 C413.82 0 827.64 0 1254 0 C1254 413.82 1254 827.64 1254 1254 C840.18 1254 426.36 1254 0 1254 C0 840.18 0 426.36 0 0 Z " fill="#9FC1A4" transform="translate(0,0)"/>
<path d="M0 0 C0.74800991 -0.00551417 1.49601982 -0.01102833 2.26669669 -0.0167096 C4.77549484 -0.03031501 7.28330397 -0.01540253 9.79208374 -0.00063419 C11.60790251 -0.00452669 13.42371823 -0.01016673 15.23952675 -0.01740509 C20.23118765 -0.03218502 25.22253391 -0.02196338 30.21418476 -0.00766838 C35.59667336 0.00342307 40.97911716 -0.00849513 46.36160278 -0.01751041 C56.90664509 -0.03145733 67.45156781 -0.02387596 77.99660444 -0.00883483 C90.27161797 0.00800871 102.54660157 0.00481709 114.82162309 0.00107109 C136.72049225 -0.00481015 158.61930394 0.00937446 180.51815796 0.03401852 C201.77729446 0.05794004 223.03635417 0.0650231 244.29550171 0.05452633 C267.43428666 0.04312198 290.57303608 0.04118109 313.7118206 0.05562443 C316.1782519 0.0571503 318.6446832 0.05867065 321.1111145 0.06018543 C322.32470882 0.06094325 323.53830314 0.06170106 324.78867304 0.06248184 C333.34899906 0.0672284 341.90930923 0.06537059 350.46963501 0.06112003 C360.89898941 0.05619788 371.32827115 0.06215759 381.75760889 0.08201433 C387.08082926 0.091899 392.40393891 0.09697875 397.72716522 0.08912182 C402.59763729 0.08208012 407.46788562 0.08883425 412.33832812 0.10672545 C414.10270797 0.11077976 415.8671081 0.10975367 417.63148046 0.10320658 C420.0258092 0.09508055 422.41937967 0.10533874 424.81365967 0.12025452 C425.5020945 0.11351687 426.19052932 0.10677921 426.89982581 0.09983739 C431.44198488 0.1547319 434.55684362 1.09947088 438.40682983 3.50057125 C441.36138251 7.83391518 441.97292273 11.31138634 441.40682983 16.50057125 C439.5996286 20.590553 437.21613233 23.16304472 433.40682983 25.50057125 C431.09682983 25.50057125 428.78682983 25.50057125 426.40682983 25.50057125 C426.40682983 37.05057125 426.40682983 48.60057125 426.40682983 60.50057125 C431.2958609 59.41669443 436.18481157 58.33246623 441.07357788 57.24739742 C442.73076074 56.8796874 444.38798608 56.51216876 446.04525757 56.14485836 C448.45105485 55.61161088 450.85671604 55.07775532 453.26229858 54.54354 C454.05059052 54.36857998 454.83888245 54.19361996 455.65106201 54.01335812 C460.29119763 52.98059725 464.92318544 51.91799192 469.55136108 50.8326025 C474.31738077 49.72626557 479.07894789 48.78749211 483.90682983 48.00057125 C489.13339408 47.12337325 494.2598807 46.09379574 499.40682983 44.81307125 C507.27216736 42.97162237 513.39893927 42.20894837 520.62167358 46.3013525 C525.35377041 49.48024468 528.48396358 53.13678643 530.40682983 58.50057125 C531.16919058 64.80832315 530.59514715 69.89353045 527.40682983 75.50057125 C518.26840891 86.36788262 502.54637733 86.8509175 489.40097046 88.94734859 C482.45179045 90.08289896 475.84096273 91.60959228 469.07479858 93.559165 C463.95813567 94.87238732 458.79211738 95.68995165 453.56942749 96.46175289 C449.31712742 97.10530022 445.48314525 98.07978081 441.40682983 99.50057125 C439.54011075 99.91482946 437.66454509 100.29145559 435.78182983 100.62557125 C434.86143921 100.79314938 433.94104858 100.9607275 432.99276733 101.13338375 C430.40682983 101.50057125 430.40682983 101.50057125 426.40682983 101.50057125 C426.40959521 102.15065403 426.41236059 102.80073681 426.41520977 103.47051907 C426.48173365 119.35703094 426.53123797 135.24349372 426.56226635 151.13011074 C426.57767386 158.81305632 426.59864492 166.49590839 426.63314819 174.17879391 C426.66323944 180.88249802 426.68244916 187.58613434 426.68909532 194.28990412 C426.69297454 197.83289366 426.70196006 201.37568944 426.72402 204.91861629 C426.90319037 234.8534122 423.17882201 262.6203839 401.83236694 285.2857275 C390.22792675 296.95557274 372.31465143 308.92107868 355.40682983 309.62557125 C354.74682983 309.58432125 354.08682983 309.54307125 353.40682983 309.50057125 C353.40682983 310.16057125 353.40682983 310.82057125 353.40682983 311.50057125 C318.37400673 311.56932748 283.34119735 311.62214571 248.30832091 311.65376724 C244.16675932 311.65751909 240.02519786 311.66140208 235.88363647 311.66536617 C235.05917084 311.6661531 234.2347052 311.66694004 233.38525576 311.66775081 C220.0581577 311.68078349 206.7310987 311.70442548 193.40402376 311.73202964 C179.71611356 311.76014348 166.02822373 311.77676012 152.34028584 311.78283674 C143.90285565 311.78694081 135.46553589 311.79987499 127.02813972 311.82432065 C121.23218715 311.84025176 115.43629117 311.84495503 109.64031833 311.84107538 C106.30272768 311.8391652 102.96548311 311.84364039 99.62790108 311.85818768 C69.40234132 311.98341342 45.31454053 306.56075997 22.71932983 285.12557125 C5.609512 267.29618164 -1.96754774 243.51396531 -1.82022095 219.22640133 C-1.820513 217.94707729 -1.82080505 216.66775326 -1.82110596 215.34966183 C-1.82167455 211.87722563 -1.81000124 208.40493053 -1.79595804 204.93252683 C-1.7833674 201.29039543 -1.78227367 197.64826 -1.77990723 194.00611019 C-1.77371675 187.12512323 -1.75733924 180.24420061 -1.73720825 173.36324185 C-1.71477305 165.52275808 -1.70383674 157.68227107 -1.69381738 149.84176314 C-1.67297056 133.72799498 -1.63784244 117.61429136 -1.59317017 101.50057125 C-2.35097778 101.43962276 -3.1087854 101.37867428 -3.88955688 101.31587887 C-4.88229614 101.23180782 -5.8750354 101.14773678 -6.89785767 101.06111813 C-7.88254028 100.97954464 -8.8672229 100.89797115 -9.88174438 100.81392574 C-12.99145212 100.45454254 -15.65200977 99.5555527 -18.59317017 98.50057125 C-21.57782737 97.90135709 -24.58311552 97.45257616 -27.59317017 97.00057125 C-35.78428609 95.77055219 -35.78428609 95.77055219 -39.57754517 94.5044775 C-43.60505067 93.16371466 -47.65523476 92.57639366 -51.84317017 91.93807125 C-60.33973767 90.6272875 -60.33973767 90.6272875 -62.59317017 89.50057125 C-64.23380347 89.1998381 -65.88117271 88.93561154 -67.53067017 88.68807125 C-73.19627553 87.76097219 -78.83677686 86.73990864 -84.46817017 85.62557125 C-85.6804126 85.40163692 -85.6804126 85.40163692 -86.91714478 85.17317867 C-92.75403497 83.99055661 -97.36055109 82.26350365 -101.23770142 77.465415 C-101.6231311 76.79639156 -102.00856079 76.12736813 -102.40567017 75.43807125 C-103.00315063 74.43066891 -103.00315063 74.43066891 -103.61270142 73.402915 C-106.41567406 67.96447804 -106.339355 62.1915264 -104.59317017 56.43807125 C-102.08816788 50.36134322 -96.48616663 46.11367156 -90.59317017 43.50057125 C-82.36414366 42.70138084 -74.55777726 44.81599133 -66.58596802 46.6339941 C-62.45331973 47.5761856 -58.31401559 48.48826077 -54.17520142 49.402915 C-53.35285004 49.58540798 -52.53049866 49.76790096 -51.68322754 49.95592403 C-43.63799255 51.73217081 -35.56056225 53.30023063 -27.45474243 54.7766943 C-18.73104174 56.39068108 -10.27360889 58.45811508 -1.59317017 60.50057125 C-1.59317017 48.95057125 -1.59317017 37.40057125 -1.59317017 25.50057125 C-3.90317017 25.50057125 -6.21317017 25.50057125 -8.59317017 25.50057125 C-11.9857853 23.80698649 -14.37245897 21.56806878 -16.59317017 18.50057125 C-17.7353003 14.20294054 -17.09798104 10.76259843 -15.46817017 6.68807125 C-11.02491736 1.50427632 -6.66496814 -0.09342984 0 0 Z " fill="#FDFDFD" transform="translate(414.5931701660156,609.4994287490845)"/>
<path d="M0 0 C0.89460937 0.32226562 1.78921875 0.64453125 2.7109375 0.9765625 C21.89000372 8.71548396 38.06946336 25.5435576 47 44 C47 44.99 47 45.98 47 47 C48.24394531 46.84015625 49.48789062 46.6803125 50.76953125 46.515625 C59.38237632 45.66235878 68.0408753 45.75833606 76.6875 45.75 C77.6005188 45.74832825 78.5135376 45.74665649 79.45422363 45.74493408 C92.76177052 45.74347383 105.71166386 46.30420065 118.84472656 48.62841797 C121.92556705 49.1595733 125.02539034 49.53272744 128.125 49.9375 C147.01563631 52.99551423 169.16754053 61.48191461 183 75 C183 75.66 183 76.32 183 77 C183.54527344 76.77183594 184.09054687 76.54367187 184.65234375 76.30859375 C190.31356745 74.15055463 195.10078847 73.17432525 201 75 C204.13637463 77.04824465 205.64607776 78.41173737 206.47265625 82.12109375 C206.73801247 86.15586915 206.16819376 88.65714349 204.375 92.3125 C199.87448325 96.83788148 192.99243288 97.61085109 187 99 C185.3135639 99.40395483 183.62737813 99.80895576 181.94140625 100.21484375 C179.32154785 100.84344828 176.70123598 101.46794523 174.07617188 102.07446289 C168.31503941 103.4099472 162.60086375 104.88703913 156.89004517 106.42346191 C152.3491633 107.64422621 147.80123799 108.83361477 143.24609375 110 C142.60317886 110.16487915 141.96026398 110.3297583 141.29786682 110.49963379 C138.6911874 111.16776132 136.08430068 111.83505818 133.47680664 112.5 C126.50878238 114.27825716 119.5615568 116.10442646 112.65234375 118.1015625 C107.1725846 119.68430378 101.68304455 121.09855734 96.125 122.375 C85.28026314 124.91227807 74.47868064 127.60988357 63.67822266 130.32861328 C61.35333547 130.91142456 59.02703974 131.48763981 56.69921875 132.05859375 C48.16403134 134.15969709 39.69282009 136.44564089 31.22021484 138.78466797 C24.80773386 140.54183261 18.37423585 142.12659372 11.89282227 143.60595703 C7.7170645 144.5681774 3.60836652 145.65844487 -0.5 146.875 C-7.03179405 148.79390263 -13.62487226 150.37405677 -20.25 151.9375 C-27.54220057 153.6593294 -34.79688315 155.43576844 -42 157.5 C-48.85492289 159.4589961 -55.74934141 161.17345335 -62.6875 162.8125 C-72.38129726 165.10593071 -82.04330773 167.50743099 -91.6875 170 C-92.34850708 170.17083099 -93.00951416 170.34166199 -93.69055176 170.51766968 C-102.83229934 172.88453444 -111.94955016 175.33275536 -121.05175781 177.84716797 C-128.8413427 179.98660214 -136.67235605 181.94487227 -144.51318359 183.88671875 C-152.3684099 185.83346554 -160.18785782 187.88644098 -168 190 C-170.43738274 190.64627573 -172.87488578 191.29209792 -175.3125 191.9375 C-179.32194918 193.00250994 -183.32289266 194.08568927 -187.3125 195.22265625 C-195.82266 197.64218422 -204.32570125 199.84165673 -212.98754883 201.65625 C-217.1049948 202.52796794 -221.01481894 203.66020379 -225 205 C-230.03527365 205.63939983 -232.85006114 205.58902107 -237 202.5625 C-239.59206079 200.03598557 -240.54618355 198.17944901 -240.8125 194.5625 C-240.43189505 190.22213967 -238.9395496 187.53475862 -235.91796875 184.44140625 C-231.40042033 181.0463444 -226.55907977 180 -221 180 C-220.88269531 179.12085938 -220.76539063 178.24171875 -220.64453125 177.3359375 C-216.41704854 155.45551185 -194.8235347 137.60157173 -178 125 C-177.44860352 124.58250488 -176.89720703 124.16500977 -176.32910156 123.73486328 C-157.39696945 109.4706956 -135.9349447 96.98576355 -114 88 C-113.96036133 87.38181396 -113.92072266 86.76362793 -113.87988281 86.12670898 C-111.97521702 57.78033618 -104.94604838 33.48316519 -83 14 C-73.51953963 5.95657783 -62.92433179 0.40464683 -51 -3 C-49.98164062 -3.35578125 -48.96328125 -3.7115625 -47.9140625 -4.078125 C-32.65074837 -8.38230885 -14.57079074 -5.39774475 0 0 Z " fill="#FDFDFD" transform="translate(590,334)"/>
<path d="M0 0 C0.84691406 -0.03738281 1.69382812 -0.07476563 2.56640625 -0.11328125 C6.92370231 -0.17426984 9.83764035 -0.0389988 13.296875 2.7734375 C17.82861297 7.57938891 16.76081378 12.02954213 16.58007812 18.3046875 C16.54442749 19.40441895 16.54442749 19.40441895 16.50805664 20.52636719 C16.43975624 22.67889325 16.38420048 24.83145258 16.33007812 26.984375 C16.11870244 34.39555875 15.66801007 41.73065243 14.8671875 49.1015625 C13.81812391 58.82235462 13.14057756 68.55831821 12.49609375 78.3125 C12.44273298 79.11927814 12.38937222 79.92605629 12.33439445 80.75728226 C12.00351171 85.77660324 11.67757781 90.79623721 11.35314941 95.815979 C10.91542597 102.5781127 10.47159893 109.33984861 10.02791023 116.10159302 C9.87552967 118.4321554 9.72477713 120.76281826 9.57432556 123.09350586 C9.16408383 129.40790788 8.735959 135.71771643 8.19262695 142.02246094 C5.63890213 171.78102725 9.68223598 197.54629337 26.75 222.375 C28.04046425 223.74986639 29.35831483 225.10269189 30.75 226.375 C30.42 227.035 30.09 227.695 29.75 228.375 C21.07863763 220.67069777 12.94385387 213.27589858 6.75 203.375 C6.28464844 202.64152344 5.81929688 201.90804687 5.33984375 201.15234375 C-4.70520383 184.22628498 -7.44793209 165.13077828 -8.0390625 145.7890625 C-8.24907347 139.30703856 -8.85587497 132.86998354 -9.50244141 126.41870117 C-10.11052214 120.02665722 -10.42474351 113.64381087 -10.6875 107.23046875 C-11.20675191 94.83299761 -12.2103683 82.48798491 -13.25 70.125 C-14.4397942 55.88183187 -15.58121927 41.65328579 -16.25 27.375 C-16.30124023 26.32989258 -16.35248047 25.28478516 -16.40527344 24.20800781 C-16.51372379 21.67959085 -16.57876721 19.15519466 -16.625 16.625 C-16.66238281 15.80257812 -16.69976562 14.98015625 -16.73828125 14.1328125 C-16.79962649 9.89317491 -16.57221242 7.22170649 -13.8515625 3.859375 C-9.42129541 -0.37133051 -5.87250149 0.09655832 0 0 Z " fill="#A1C2A6" transform="translate(456.25,662.625)"/>
<path d="M0 0 C1.04671875 -0.01224609 2.0934375 -0.02449219 3.171875 -0.03710938 C18.40708895 -0.0656754 29.87039333 4.9695167 41.25 15.1875 C52.25 26.40532178 52.25 26.40532178 52.25 31.1875 C48.77123872 31.91860877 45.2919555 32.64720252 41.8125 33.375 C40.7387915 33.59986084 39.66508301 33.82472168 38.55883789 34.05639648 C31.8414706 35.45720916 25.1164452 36.808813 18.38183594 38.12402344 C8.20256532 40.11879949 -1.76631554 42.36403685 -11.75 45.1875 C-13.43549397 45.63546956 -15.12175267 46.08056754 -16.80859375 46.5234375 C-27.3247743 49.30246015 -37.67866389 52.36228096 -47.96142578 55.9152832 C-51.87118344 57.26202883 -55.64903664 58.54174503 -59.75 59.1875 C-59.69859961 43.94728497 -54.48270323 31.7438853 -44.75 20.1875 C-44.23050781 19.55585938 -43.71101562 18.92421875 -43.17578125 18.2734375 C-31.68911293 5.60048857 -16.67505125 0.01011836 0 0 Z " fill="#A0C1A5" transform="translate(559.75,352.8125)"/>
<path d="M0 0 C0.495 0.99 0.495 0.99 1 2 C0.05957031 4.41088867 0.05957031 4.41088867 -1.421875 7.41796875 C-1.95296875 8.50787109 -2.4840625 9.59777344 -3.03125 10.72070312 C-3.5984375 11.86474609 -4.165625 13.00878906 -4.75 14.1875 C-6.84279924 18.45377882 -8.93042819 22.72239911 -11 27 C-11.34417969 27.71124023 -11.68835938 28.42248047 -12.04296875 29.15527344 C-14.87749081 35.32951347 -15.43261406 41.9950478 -13.12109375 48.45703125 C-10.98743008 52.47789578 -8.2976087 55.91167635 -5.4375 59.4375 C2.16481414 68.91140782 4.02313074 80.11150903 3 92 C-0.0205607 105.82553784 -7.13219126 114.63691143 -18.87109375 122.20654297 C-30.47076613 129.49025538 -30.47076613 129.49025538 -35 131 C-33.88558041 124.37193104 -31.7995531 119.07956187 -28.5 113.25 C-22.91734694 103.17268697 -20.28721959 94.66074742 -22 83 C-23.44846709 79.4237847 -25.46992518 76.88083519 -28 74 C-36.62273991 62.56641595 -39.03629223 51.7383647 -37.78515625 37.56640625 C-36.22936837 27.75969841 -29.37376206 19.30397996 -22 13 C-18.66412852 10.69031612 -15.20426966 8.64554402 -11.6875 6.625 C-10.78193359 6.09261719 -9.87636719 5.56023437 -8.94335938 5.01171875 C-2.67329545 1.33664773 -2.67329545 1.33664773 0 0 Z " fill="#FBFCFB" transform="translate(829,447)"/>
<path d="M0 0 C0.66 0.33 1.32 0.66 2 1 C1.71278076 1.52843506 1.42556152 2.05687012 1.12963867 2.60131836 C-0.19186475 5.04275799 -1.50220139 7.49002986 -2.8125 9.9375 C-3.26431641 10.76830078 -3.71613281 11.59910156 -4.18164062 12.45507812 C-8.41019439 20.3874746 -12.57302256 28.77776967 -11 38 C-9.11902682 43.12075665 -6.70988464 47.03298888 -3.4375 51.4375 C1.67064435 58.57056778 4.1854177 65.04184348 3 74 C0.210252 87.31394706 -6.05312888 94.4009584 -17 102 C-26.24503311 108 -26.24503311 108 -29 108 C-27.12055542 101.58777733 -24.5188105 95.78108106 -21.42553711 89.87451172 C-17.81815797 82.92530341 -17.25320337 76.80455072 -18 69 C-19.51757616 65.96484769 -21.25103009 63.85911254 -23.4609375 61.32421875 C-29.36283612 54.08915014 -32.90170169 44.62347076 -32.3828125 35.1796875 C-30.22358076 22.88528634 -22.92527156 15.16921 -13.1171875 8.125 C-3.65506767 1.6746326 -3.65506767 1.6746326 0 0 Z " fill="#FAFBFA" transform="translate(885,448)"/>
</svg>
